<svg xmlns="http://www.w3.org/2000/svg" id="Layer_1" data-name="Layer 1" viewBox="0 0 220 220"><defs><style>.cls-1{fill:#fafafa}.cls-10,.cls-11,.cls-12,.cls-13,.cls-14,.cls-15,.cls-16,.cls-17,.cls-18,.cls-19,.cls-2,.cls-20,.cls-21,.cls-22,.cls-23,.cls-24,.cls-25,.cls-26,.cls-27,.cls-28,.cls-29,.cls-3,.cls-30,.cls-31,.cls-32,.cls-33,.cls-34,.cls-35,.cls-36,.cls-37,.cls-38,.cls-39,.cls-4,.cls-5,.cls-6,.cls-7,.cls-8,.cls-9{fill:none;stroke:#d7d7d7;stroke-miterlimit:10;stroke-width:.5px}.cls-3{stroke-dasharray:4.67 4.67}.cls-4{stroke-dasharray:4.56 4.56}.cls-5{stroke-dasharray:4.58 4.58}.cls-6{stroke-dasharray:4.71 4.71}.cls-7,.cls-8{stroke-dasharray:5.2 5.2}.cls-9{stroke-dasharray:4.72 4.72}.cls-10{stroke-dasharray:4.59 4.59}.cls-11{stroke-dasharray:4.6 4.6}.cls-12{stroke-dasharray:4.67 4.67}.cls-13,.cls-14{stroke-dasharray:5.2 5.2}.cls-15{stroke-dasharray:4.86 4.86}.cls-16{stroke-dasharray:4.61 4.61}.cls-17{stroke-dasharray:4.83 4.83}.cls-18{stroke-dasharray:4.6 4.6}.cls-19{stroke-dasharray:4.78 4.78}.cls-20{stroke-dasharray:4.82 4.82}.cls-21{stroke-dasharray:5.02 5.02}.cls-22{stroke-dasharray:5.01 5.01}.cls-23{stroke-dasharray:5.18 5.18}.cls-24,.cls-25{stroke-dasharray:5.04 5.04}.cls-26{stroke-dasharray:5.22 5.22}.cls-27{stroke-dasharray:4.91 4.91}.cls-28{stroke-dasharray:4.87 4.87}.cls-29{stroke-dasharray:4.63 4.63}.cls-30,.cls-31,.cls-32{stroke-dasharray:4.8 4.8}.cls-33{stroke-dasharray:4.81 4.81}.cls-34{stroke-dasharray:4.82 4.82}.cls-35,.cls-36{stroke-dasharray:5.13 5.13}.cls-37{stroke-dasharray:4.81 4.81}.cls-38,.cls-39{stroke-dasharray:5.01 5.01}</style></defs><title>Artboard 1</title><path d="M167.62,16.28H129.9L110.22,57.87l-20-41.65h-38L8,110l44.33,93.76h38l19.72-41.93,19.82,41.93h37.7l44.08-93.17L212,110ZM108.7,61.1,92,96.34l-20-42L88.57,19.28ZM90.47,99.58,85.57,110l4.75,10-20,42L45.7,110,70.47,57.58ZM54.89,200.92,12.14,110l43-90.52H86L42.14,110.2,86,200.92Zm33.81,0L71.84,165.33l20-42,16.69,35.31Zm43.19,0L89.14,110l43-90.52H163L119.14,110.2,163,200.92ZM148.1,57.67,172.73,110,148,162.28,123.35,110Zm18,142.87-16.55-35L175.79,110l-26.16-55.6,16.48-35L208.89,110Z" class="cls-1"/><polyline points="168.69 18.54 167.62 16.28 165.12 16.28" class="cls-2"/><line x1="160.45" x2="134.74" y1="16.28" y2="16.28" class="cls-3"/><polyline points="132.4 16.28 129.9 16.28 128.83 18.54" class="cls-2"/><line x1="126.88" x2="112.26" y1="22.66" y2="53.55" class="cls-4"/><polyline points="111.29 55.61 110.22 57.87 109.14 55.62" class="cls-2"/><line x1="107.16" x2="92.31" y1="51.49" y2="20.54" class="cls-5"/><polyline points="91.32 18.47 90.24 16.22 87.74 16.22" class="cls-2"/><line x1="83.03" x2="57.1" y1="16.22" y2="16.22" class="cls-6"/><polyline points="54.74 16.22 52.24 16.22 51.17 18.48" class="cls-2"/><line x1="48.96" x2="10.17" y1="23.18" y2="105.41" class="cls-7"/><polyline points="9.07 107.76 8 110.02 9.07 112.28" class="cls-2"/><line x1="11.29" x2="50.15" y1="116.98" y2="199.17" class="cls-8"/><polyline points="51.26 201.52 52.33 203.78 54.83 203.78" class="cls-2"/><line x1="59.55" x2="85.5" y1="203.78" y2="203.78" class="cls-9"/><polyline points="87.86 203.78 90.36 203.78 91.42 201.52" class="cls-2"/><line x1="93.38" x2="108.04" y1="197.36" y2="166.19" class="cls-10"/><polyline points="109.02 164.11 110.08 161.85 111.15 164.11" class="cls-2"/><line x1="113.11" x2="127.85" y1="168.27" y2="199.44" class="cls-11"/><polyline points="128.83 201.52 129.9 203.78 132.4 203.78" class="cls-2"/><line x1="137.07" x2="162.76" y1="203.78" y2="203.78" class="cls-12"/><polyline points="165.1 203.78 167.6 203.78 168.67 201.52" class="cls-2"/><line x1="170.89" x2="209.79" y1="196.82" y2="114.61" class="cls-13"/><polyline points="210.9 112.26 211.68 110.61 212 110.02 210.93 107.76" class="cls-2"/><line x1="208.71" x2="169.8" y1="103.06" y2="20.89" class="cls-14"/><polyline points="107.62 58.85 108.7 61.1 107.63 63.36" class="cls-2"/><line x1="105.55" x2="94.11" y1="67.75" y2="91.89" class="cls-15"/><polyline points="93.07 94.08 92 96.34 90.92 94.08" class="cls-2"/><line x1="88.94" x2="74.07" y1="89.92" y2="58.68" class="cls-16"/><polyline points="73.08 56.6 72 54.34 73.07 52.08" class="cls-2"/><line x1="75.13" x2="86.47" y1="47.72" y2="23.72" class="cls-17"/><polyline points="87.5 21.54 88.57 19.28 89.65 21.53" class="cls-2"/><line x1="91.65" x2="106.62" y1="25.68" y2="56.77" class="cls-18"/><polyline points="89.39 97.32 90.47 99.58 89.41 101.84" class="cls-2"/><polyline points="86.63 107.76 85.57 110.02 86.64 112.28" class="cls-2"/><polyline points="89.25 117.76 90.32 120.02 89.25 122.28" class="cls-2"/><line x1="87.26" x2="72.39" y1="126.44" y2="157.68" class="cls-16"/><polyline points="71.39 159.76 70.32 162.02 69.25 159.76" class="cls-2"/><line x1="67.21" x2="47.79" y1="155.44" y2="114.44" class="cls-19"/><polyline points="46.77 112.28 45.7 110.02 46.77 107.76" class="cls-2"/><line x1="48.83" x2="68.37" y1="103.4" y2="62.02" class="cls-20"/><polyline points="69.4 59.84 70.47 57.58 71.55 59.84" class="cls-2"/><line x1="73.53" x2="88.4" y1="64" y2="95.24" class="cls-16"/><polyline points="57.39 200.92 54.89 200.92 53.83 198.66" class="cls-2"/><line x1="51.69" x2="14.27" y1="194.11" y2="114.54" class="cls-21"/><polyline points="13.2 112.26 12.14 110 13.21 107.74" class="cls-2"/><line x1="15.36" x2="52.99" y1="103.22" y2="24" class="cls-22"/><polyline points="54.07 21.74 55.14 19.48 57.64 19.48" class="cls-2"/><line x1="62.82" x2="80.93" y1="19.48" y2="19.48" class="cls-23"/><polyline points="83.52 19.48 86.02 19.48 84.93 21.73" class="cls-2"/><line x1="82.73" x2="44.33" y1="26.27" y2="105.68" class="cls-24"/><polyline points="43.23 107.95 42.14 110.2 43.23 112.45" class="cls-2"/><line x1="45.42" x2="83.83" y1="116.99" y2="196.4" class="cls-25"/><polyline points="84.93 198.67 86.02 200.92 83.52 200.92" class="cls-2"/><line x1="78.29" x2="60" y1="200.92" y2="200.92" class="cls-26"/><polyline points="89.76 198.66 88.7 200.92 87.63 198.66" class="cls-2"/><line x1="85.53" x2="73.96" y1="194.22" y2="169.81" class="cls-27"/><polyline points="72.91 167.59 71.84 165.33 72.92 163.07" class="cls-2"/><line x1="74.9" x2="89.77" y1="158.91" y2="127.67" class="cls-16"/><polyline points="90.77 125.59 91.84 123.33 92.91 125.59" class="cls-2"/><line x1="94.99" x2="106.42" y1="129.99" y2="154.18" class="cls-28"/><polyline points="107.46 156.38 108.53 158.64 107.47 160.9" class="cls-2"/><line x1="105.5" x2="90.75" y1="165.1" y2="196.56" class="cls-29"/><polyline points="134.39 200.92 131.89 200.92 130.83 198.66" class="cls-2"/><line x1="128.69" x2="91.27" y1="194.11" y2="114.54" class="cls-21"/><polyline points="90.2 112.26 89.14 110 90.21 107.74" class="cls-2"/><line x1="92.36" x2="129.99" y1="103.22" y2="24" class="cls-22"/><polyline points="131.07 21.74 132.14 19.48 134.64 19.48" class="cls-2"/><line x1="139.82" x2="157.93" y1="19.48" y2="19.48" class="cls-23"/><polyline points="160.51 19.48 163.01 19.48 161.93 21.73" class="cls-2"/><line x1="159.73" x2="121.33" y1="26.27" y2="105.68" class="cls-24"/><polyline points="120.23 107.95 119.14 110.2 120.23 112.45" class="cls-2"/><line x1="122.42" x2="160.83" y1="116.99" y2="196.4" class="cls-25"/><polyline points="161.93 198.67 163.01 200.92 160.51 200.92" class="cls-2"/><line x1="155.29" x2="137" y1="200.92" y2="200.92" class="cls-26"/><polyline points="147.03 59.93 148.1 57.67 149.16 59.93" class="cls-2"/><line x1="151.21" x2="170.64" y1="64.28" y2="105.58" class="cls-30"/><polyline points="171.67 107.76 172.73 110.02 171.66 112.28" class="cls-2"/><line x1="169.61" x2="150.1" y1="116.62" y2="157.85" class="cls-31"/><polyline points="149.07 160.02 148 162.28 146.93 160.02" class="cls-2"/><line x1="144.89" x2="125.44" y1="155.68" y2="114.45" class="cls-32"/><polyline points="124.42 112.28 123.35 110.02 124.42 107.76" class="cls-2"/><line x1="126.47" x2="146" y1="103.41" y2="62.1" class="cls-33"/><polyline points="167.21 198.28 166.14 200.54 165.07 198.28" class="cls-2"/><line x1="163.01" x2="151.69" y1="193.93" y2="169.98" class="cls-34"/><polyline points="150.66 167.8 149.59 165.54 150.66 163.28" class="cls-2"/><line x1="152.84" x2="173.63" y1="158.64" y2="114.61" class="cls-35"/><polyline points="174.72 112.29 175.79 110.03 174.73 107.77" class="cls-2"/><line x1="172.54" x2="151.79" y1="103.12" y2="59.01" class="cls-36"/><polyline points="150.69 56.69 149.63 54.43 150.7 52.17" class="cls-2"/><line x1="152.75" x2="164.02" y1="47.82" y2="23.91" class="cls-37"/><polyline points="165.04 21.74 166.11 19.48 167.18 21.74" class="cls-2"/><line x1="169.32" x2="206.75" y1="26.27" y2="105.49" class="cls-38"/><polyline points="207.82 107.75 208.89 110.01 207.82 112.27" class="cls-2"/><line x1="205.68" x2="168.28" y1="116.8" y2="196.02" class="cls-39"/></svg>