<svg xmlns="http://www.w3.org/2000/svg" xmlns:svg="http://www.w3.org/2000/svg" id="Layer_1" width="39.7" height="39.7" x="0" y="0" enable-background="new 0 0 386.5 39.7" version="1.1" viewBox="0 0 39.7 39.7" xml:space="preserve"><metadata id="metadata46"/><g id="Layer_1-7" transform="matrix(0.39457959,0,0,0.39457959,-0.9176319,0.1048994)"><circle id="circle3828" cx="55.069" cy="50" r="50" style="fill:#d71e00"/><path id="path3830" d="m 90.429,14.641 c 19.529,19.529 19.529,51.19 0,70.718 -19.529,19.53 -51.192,19.53 -70.72,0 z" style="fill:#c21a00"/><polygon id="polygon3832" points="46.789 49.99 61.838 18.14 74.668 18.14 59.608 49.99 74.668 81.859 61.838 81.859" style="fill:#fff"/><polygon id="polygon3834" points="68.258 31.7 76.898 49.99 68.258 68.291 74.668 81.859 89.718 49.99 74.668 18.14" style="fill:#b7b7b7"/><polygon id="polygon3836" points="20.419 49.99 35.469 18.14 48.299 18.14 33.239 49.99 48.299 81.859 35.469 81.859" style="fill:#fff"/><polygon id="polygon3838" points="55.069 32.47 48.299 18.14 41.879 31.71 48.659 46.04" style="fill:#b7b7b7"/><polygon id="polygon3840" points="48.299 81.859 55.069 67.529 48.659 53.961 41.879 68.291" style="fill:#b7b7b7"/></g></svg>