<svg xmlns="http://www.w3.org/2000/svg" xmlns:xlink="http://www.w3.org/1999/xlink" id="Layer_1" width="90" height="453.54" x="0" y="0" enable-background="new 0 0 453.54 453.54" version="1.1" viewBox="0 0 90 453.54" xml:space="preserve"><g><rect width=".561" height="1.094" x="79.797" y="74.656" fill="#231F20"/><rect width=".561" height="1.094" x="80.756" y="74.656" fill="#231F20"/><g><polygon fill="#4B5059" points="79.16 77.125 79.16 76.188 81.723 76.188 81.723 75.25 79.098 75.25 77.848 80.812 81.723 80.812 81.723 78.5 79.16 78.5 79.16 77.562 81.723 77.562 81.723 77.125"/><rect width="2.562" height=".938" x="79.16" y="76.188" fill="#A73D37"/><rect width="2.562" height=".938" x="79.16" y="77.562" fill="#A73D37"/></g><rect width="10.5" height="7.75" x="72.41" y="79.625" fill="#9BA9B2"/><polygon fill="#E8E5D1" points="80.598 86.062 78.41 81.125 71.098 81.125 71.098 81.844 69.504 81.844 69.504 84.156 71.098 84.156 71.098 93.711 84.598 94.25 84.598 86.062"/><polyline fill="#E8E5D1" points="2.41 90.819 2.41 85.562 2.973 85.562 3.66 90.819"/><g><g><rect width="5.821" height="1.972" x="31.306" y="91.138" fill="#707E68"/><rect width="5.821" height="1.972" x="25.159" y="91.138" fill="#BFA176"/><rect width="5.821" height="1.972" x="37.451" y="91.138" fill="#B07959"/><rect width="5.821" height="1.972" x="43.597" y="91.138" fill="#9A6B50"/><rect width="5.821" height="1.972" x="49.742" y="91.138" fill="#7E3F20"/><rect width="5.822" height="1.972" x="55.887" y="91.138" fill="#D6543B"/><rect width="5.821" height="1.972" x="62.033" y="91.138" fill="#B07959"/></g><g><g><rect width="5.821" height="1.972" x="62.033" y="88.847" fill="#707E68"/><rect width="5.822" height="1.972" x="55.887" y="88.847" fill="#B07959"/><rect width="5.821" height="1.972" x="49.742" y="88.847" fill="tan"/><rect width="5.821" height="1.972" x="43.597" y="88.847" fill="#7E3F20"/><rect width="5.821" height="1.972" x="37.451" y="88.847" fill="#D6543B"/><rect width="5.821" height="1.972" x="31.306" y="88.847" fill="#DEA374"/></g><g><rect width="5.821" height="1.972" x="25.159" y="88.847" fill="#707E68"/><rect width="5.821" height="1.972" x="19.014" y="88.847" fill="#B07959"/><rect width="5.822" height="1.972" x="12.868" y="88.847" fill="tan"/><rect width="5.821" height="1.972" x="6.723" y="88.847" fill="#7E3F20"/></g></g><g><rect width="5.821" height="1.972" x="37.45" y="84.266" fill="#707E68"/><rect width="5.821" height="1.972" x="43.597" y="84.266" fill="#BFA176"/><rect width="5.821" height="1.972" x="31.305" y="84.266" fill="#B07959"/><rect width="5.821" height="1.972" x="25.159" y="84.266" fill="#9A6B50"/><rect width="5.821" height="1.972" x="19.014" y="84.266" fill="#7E3F20"/><rect width="5.822" height="1.972" x="12.868" y="84.266" fill="#D6543B"/><rect width="5.821" height="1.972" x="6.723" y="84.266" fill="#B07959"/></g><g><g><rect width="5.821" height="1.972" x="6.723" y="86.557" fill="#707E68"/><rect width="5.822" height="1.972" x="12.868" y="86.557" fill="#B07959"/><rect width="5.821" height="1.972" x="19.014" y="86.557" fill="tan"/><rect width="5.821" height="1.972" x="25.159" y="86.557" fill="#7E3F20"/><rect width="5.821" height="1.972" x="31.305" y="86.557" fill="#D6543B"/><rect width="5.821" height="1.972" x="37.45" y="86.557" fill="#DEA374"/></g><g><rect width="5.821" height="1.972" x="43.597" y="86.557" fill="#707E68"/><rect width="5.821" height="1.972" x="49.742" y="86.557" fill="#B07959"/><rect width="5.822" height="1.972" x="55.887" y="86.557" fill="tan"/><rect width="5.821" height="1.972" x="62.033" y="86.557" fill="#7E3F20"/></g></g></g><polygon fill="#A82526" points="87.473 92.819 24.348 92.819 24.348 90.069 6.848 90.069 0 90.069 1.721 94.688 87.473 94.688"/><path fill="#59565F" d="M1.721,94.688l0.502,1.347c-5,2.965,0,5.61,0,5.61s83.5,0.799,83.677,0s1.573-3.076,1.573-3.076v-3.881 H1.721z"/><g><rect width="1.156" height=".844" x="69.91" y="82.312" fill="#636B62"/><rect width="1.156" height=".844" x="71.551" y="82.312" fill="#636B62"/><rect width="1.156" height=".844" x="73.191" y="82.312" fill="#636B62"/><rect width="1.156" height=".844" x="74.832" y="82.312" fill="#636B62"/><rect width="1.156" height=".844" x="76.473" y="82.312" fill="#636B62"/></g><g><rect width=".828" height=".844" x="77.246" y="87.163" fill="#9BA9B2"/><rect width=".828" height=".844" x="78.422" y="87.163" fill="#9BA9B2"/><rect width=".828" height=".844" x="79.598" y="87.163" fill="#9BA9B2"/><rect width=".828" height=".844" x="80.773" y="87.163" fill="#9BA9B2"/><rect width=".828" height=".844" x="81.949" y="87.163" fill="#9BA9B2"/></g><g><rect width=".828" height=".844" x="77.309" y="89.225" fill="#9BA9B2"/><rect width=".828" height=".844" x="78.484" y="89.225" fill="#9BA9B2"/><rect width=".828" height=".844" x="79.66" y="89.225" fill="#9BA9B2"/><rect width=".828" height=".844" x="80.836" y="89.225" fill="#9BA9B2"/><rect width=".828" height=".844" x="82.012" y="89.225" fill="#9BA9B2"/></g><circle cx="4.191" cy="92.281" r=".531" fill="#5F3F2B"/><rect width=".828" height=".844" x="80.186" y="82.312" fill="gray"/><rect width=".828" height=".844" x="81.361" y="82.312" fill="gray"/></g></svg>